<?xml version="1.0" encoding="UTF-8"?>
<svg id="Capa_1" data-name="Capa 1" xmlns="http://www.w3.org/2000/svg" viewBox="0 0 248.74 80.21">
  <defs>
    <style>
      .cls-1 {
        fill: #000000;
        stroke-width: 0px;
      }
    </style>
  </defs>
  <g>
    <polygon class="cls-1" points="130.35 36.32 130.35 36.31 131.67 32.24 142.13 0 144.77 0 132.99 36.31 132.99 36.32 132.99 36.32 130.35 36.32 130.35 36.32"/>
    <polygon class="cls-1" points="119.8 36.32 119.8 36.31 121.12 32.24 122.44 28.18 123.76 24.11 125.08 20.05 126.4 15.98 131.58 0 134.22 0 127.71 20.05 126.4 24.11 125.08 28.18 123.76 32.24 122.44 36.31 122.44 36.32 122.44 36.32 119.81 36.32 119.8 36.32"/>
    <polygon class="cls-1" points="115.85 32.24 117.16 28.18 118.48 24.11 119.8 20.05 121.12 15.98 122.44 11.91 123.76 7.85 126.3 0 128.94 0 125.08 11.91 122.44 20.05 121.12 24.11 119.8 28.18 118.48 32.24 117.16 36.31 117.17 36.32 117.16 36.32 114.53 36.32 114.52 36.32 114.53 36.31 115.85 32.24"/>
    <polygon class="cls-1" points="127.71 36.32 125.08 36.32 125.07 36.32 125.08 36.31 126.4 32.24 127.71 28.18 129.03 24.11 136.85 0 139.49 0 130.35 28.18 129.03 32.24 127.71 36.31 127.72 36.32 127.71 36.32"/>
    <polygon class="cls-1" points="107.38 19.2 104.69 19.2 103.5 17.12 106.19 17.12 107.38 19.2"/>
    <polygon class="cls-1" points="109.12 22.23 106.43 22.23 105.24 20.16 107.93 20.16 109.12 22.23"/>
    <polygon class="cls-1" points="110.85 25.27 108.16 25.27 106.97 23.19 109.66 23.19 110.85 25.27"/>
    <polygon class="cls-1" points="112.59 28.3 109.9 28.3 108.71 26.22 111.4 26.22 112.59 28.3"/>
    <polygon class="cls-1" points="114.32 31.33 111.63 31.33 110.44 29.25 113.13 29.25 114.32 31.33"/>
    <polygon class="cls-1" points="116.06 34.36 113.37 34.36 112.18 32.28 114.87 32.28 116.06 34.36"/>
    <polygon class="cls-1" points="112.77 19.2 110.08 19.2 108.89 17.12 111.58 17.12 112.77 19.2"/>
    <polygon class="cls-1" points="114.51 22.23 111.81 22.23 110.63 20.16 113.32 20.16 114.51 22.23"/>
    <polygon class="cls-1" points="116.24 25.27 113.55 25.27 112.36 23.19 115.05 23.19 116.24 25.27"/>
    <polygon class="cls-1" points="117.98 28.3 115.28 28.3 114.09 26.22 116.79 26.22 117.98 28.3"/>
    <polyline class="cls-1" points="116.81 31.33 115.62 29.25 118.31 29.25"/>
    <polygon class="cls-1" points="117.98 19.2 115.28 19.2 114.09 17.12 116.79 17.12 117.98 19.2"/>
    <polygon class="cls-1" points="119.71 22.23 117.02 22.23 115.83 20.16 118.52 20.16 119.71 22.23"/>
    <polyline class="cls-1" points="118.75 25.27 117.56 23.19 120.26 23.19"/>
    <polyline class="cls-1" points="120.49 19.2 119.3 17.12 121.99 17.12"/>
  </g>
  <g>
    <path class="cls-1" d="m12.46,80.21h-4.87c-2.42,0-4.29-.64-5.61-1.93-1.32-1.29-1.98-3.14-1.98-5.56v-14.58c0-2.42.66-4.28,1.98-5.56,1.32-1.29,3.19-1.93,5.61-1.93h4.87c2.39,0,4.24.65,5.56,1.95,1.32,1.3,1.98,3.15,1.98,5.54v1.38c0,.67-.32,1.01-.96,1.01h-3.91c-.64,0-.97-.34-.97-1.01v-1.1c0-.98-.2-1.68-.6-2.09-.4-.41-1.09-.62-2.07-.62h-2.99c-.95,0-1.63.21-2.05.62-.41.41-.62,1.11-.62,2.09v14.02c0,.98.21,1.68.62,2.09s1.1.62,2.05.62h2.99c.98,0,1.67-.21,2.07-.62.4-.41.6-1.11.6-2.09v-2.9c0-.34-.17-.51-.5-.51h-2.76c-.64,0-.97-.32-.97-.97v-3.13c0-.64.32-.97.97-.97h8.05c.7,0,1.06.35,1.06,1.06v7.68c0,2.39-.66,4.24-1.98,5.54-1.32,1.3-3.17,1.95-5.56,1.95Z"/>
    <path class="cls-1" d="m55.31,80.21h-15.03c-.64,0-.97-.32-.97-.97v-27.63c0-.64.32-.96.97-.96h15.03c.61,0,.92.32.92.96v3.13c0,.64-.31.96-.92.96h-9.61c-.37,0-.55.17-.55.51v5.98c0,.34.18.51.55.51h7.86c.64,0,.97.32.97.97v3.13c0,.64-.32.97-.97.97h-7.86c-.37,0-.55.17-.55.51v6.39c0,.34.18.5.55.5h9.61c.61,0,.92.32.92.97v3.13c0,.64-.31.97-.92.97Z"/>
    <path class="cls-1" d="m87.4,80.21h-5.15c-2.42,0-4.29-.64-5.61-1.93-1.32-1.29-1.98-3.14-1.98-5.56v-14.58c0-2.42.66-4.28,1.98-5.56,1.32-1.29,3.19-1.93,5.61-1.93h5.15c2.42,0,4.29.64,5.61,1.93,1.32,1.29,1.98,3.14,1.98,5.56v14.58c0,2.42-.66,4.28-1.98,5.56-1.32,1.29-3.19,1.93-5.61,1.93Zm-4.23-5.06h3.26c.98,0,1.68-.21,2.09-.62.41-.41.62-1.11.62-2.09v-14.02c0-.98-.21-1.68-.62-2.09-.41-.41-1.11-.62-2.09-.62h-3.26c-.98,0-1.67.21-2.07.62-.4.41-.6,1.11-.6,2.09v14.02c0,.98.2,1.68.6,2.09.4.41,1.09.62,2.07.62Z"/>
    <path class="cls-1" d="m130.39,80.21h-15.13c-.64,0-.97-.32-.97-.97v-27.63c0-.64.32-.96.97-.96h3.91c.64,0,.97.32.97.96v22.99c0,.34.18.51.55.51h9.7c.61,0,.92.34.92,1.01v3.13c0,.64-.31.97-.92.97Z"/>
    <path class="cls-1" d="m151.82,80.21h-4.41c-.55,0-.74-.32-.55-.97l7.26-27.63c.21-.64.67-.96,1.38-.96h6.11c.77,0,1.23.32,1.38.96l7.27,27.63c.18.64,0,.97-.55.97h-4.41c-.34,0-.57-.07-.69-.21-.12-.14-.21-.39-.28-.76l-1.29-5.06h-8.97l-1.29,5.06c-.06.37-.16.62-.3.76s-.36.21-.67.21Zm6.67-24l-3.31,13.29h6.81l-3.31-13.29h-.18Z"/>
    <path class="cls-1" d="m192.92,80.21h-3.82c-.64,0-.97-.32-.97-.97v-27.63c0-.64.32-.96.97-.96h3.45c.64,0,1.07.21,1.29.64l9.29,17.43h.18v-17.1c0-.64.32-.96.97-.96h3.82c.64,0,.97.32.97.96v27.63c0,.64-.32.97-.97.97h-3.36c-.67,0-1.16-.31-1.47-.92l-9.2-17.1h-.18v17.06c0,.64-.32.97-.97.97Z"/>
    <path class="cls-1" d="m228.83,79.24v-27.63c0-.64.32-.96.97-.96h11.36c2.39,0,4.25.65,5.59,1.95,1.33,1.3,2,3.15,2,5.54v14.58c0,2.39-.67,4.24-2,5.54-1.33,1.3-3.2,1.95-5.59,1.95h-11.36c-.64,0-.97-.32-.97-.97Zm6.35-4.09h5.01c.98,0,1.68-.21,2.09-.62.41-.41.62-1.11.62-2.09v-14.02c0-.98-.21-1.68-.62-2.09-.41-.41-1.11-.62-2.09-.62h-5.01c-.34,0-.51.17-.51.51v18.44c0,.34.17.5.51.5Z"/>
  </g>
</svg>